# xmcd
#
# Track frame offsets: 
#        150
#        21555
#        41312
#        60580
#        80280
#        101312
#        119900
#        135130
#        153082
#        157587
#        175417
#        195375
#        213755
#        233402
#        253100
#        272800
#
# Disc length: 3881 seconds
#
# Revision: 1
# Processed by: cddbd v1.5.2PL0 Copyright (c) Steve Scherf et al.
# Submitted via: ExactAudioCopy v0.95a5
#
DISCID=c00f2710
DTITLE=Brian McKnight - Back At One
DYEAR=1999
DGENRE=R&B
TTITLE0=Last Dance
TTITLE1=Stay
TTITLE2=Played Yourself
TTITLE3=Back At One
TTITLE4=Stay Or Let It Go
TTITLE5=6, 8, 12
TTITLE6=You Could Be The One
TTITLE7=Shall We Begin
TTITLE8=Gothic Interlude
TTITLE9=Can You Read My Mind
TTITLE10=Lonely
TTITLE11=Cherish
TTITLE12=Home
TTITLE13=Whenever You Call
TTITLE14=Un Dos Tres (Back At One-Spanish Version)
TTITLE15=Tell Me
EXTD=
EXTT0=
EXTT1=
EXTT2=
EXTT3=
EXTT4=
EXTT5=
EXTT6=
EXTT7=
EXTT8=
EXTT9=
EXTT10=
EXTT11=
EXTT12=
EXTT13=
EXTT14=Back At One - Spanish Version
EXTT15=
PLAYORDER=
